<svg width="204" height="169" viewBox="0 0 204 169" fill="none" xmlns="http://www.w3.org/2000/svg">
<path fill-rule="evenodd" clip-rule="evenodd" d="M53.3521 17.5129C50.8196 19.5431 47.1484 19.9262 44.0742 18.2004C40.0642 15.9493 38.5884 10.9626 40.7779 7.06222C42.9675 3.16186 47.9932 1.82487 52.0032 4.07595C56.0132 6.32704 57.4889 11.3138 55.2994 15.2141C55.1301 15.5157 54.9438 15.802 54.7423 16.0725L129.472 82.0395C132.121 80.3826 135.622 80.2072 138.6 81.8791C142.897 84.291 144.478 89.6339 142.132 93.8129C141.728 94.5325 141.234 95.1706 140.671 95.7218L160.645 127.677C162.617 126.285 165.336 126.078 167.631 127.366C170.781 129.135 171.941 133.053 170.221 136.117C168.892 138.485 166.233 139.65 163.639 139.243L159.07 157.058C159.09 157.069 159.109 157.08 159.129 157.091C161.707 158.538 162.655 161.743 161.248 164.251C159.84 166.758 156.609 167.618 154.032 166.171C151.454 164.723 150.505 161.518 151.912 159.01C152.977 157.113 155.086 156.16 157.166 156.434L161.73 138.637C161.619 138.582 161.51 138.525 161.401 138.464C158.25 136.695 157.09 132.777 158.811 129.712C158.927 129.505 159.053 129.308 159.189 129.12L139.079 96.9467C136.449 98.5151 133.026 98.6519 130.105 97.0124C125.809 94.6006 124.227 89.2576 126.573 85.0787C126.943 84.4205 127.388 83.8304 127.892 83.3127L53.3521 17.5129Z" fill="white"/>
</svg>
