<svg width="211" height="188" viewBox="0 0 211 188" fill="none" xmlns="http://www.w3.org/2000/svg">
<path fill-rule="evenodd" clip-rule="evenodd" d="M77.282 19.0317C76.6448 20.9392 75.3264 22.4291 73.6832 23.3256L92.2179 60.0426C92.9179 59.9884 93.641 60.0705 94.35 60.3073C97.1658 61.2479 98.6927 64.2728 97.7605 67.0636C97.3045 68.4287 96.3444 69.485 95.153 70.0978L99.0072 87.1745L99.046 87.186C99.0624 87.191 99.0788 87.1961 99.0952 87.2013L99.1294 87.2125C100.694 87.7351 101.542 89.4156 101.024 90.966C100.676 92.0082 99.7991 92.7264 98.7864 92.9265L96.6691 99.2648C97.0723 99.5491 97.3928 99.9249 97.6102 100.352L103.853 101.612C103.858 101.594 103.864 101.576 103.87 101.558C104.388 100.008 106.076 99.1743 107.64 99.6968C109.205 100.219 110.053 101.9 109.535 103.45C109.217 104.402 108.458 105.084 107.557 105.347L105.837 115.464C106.866 116.206 107.344 117.548 106.925 118.805C106.836 119.069 106.714 119.313 106.564 119.532L117.601 132.323C119.139 131.692 120.907 131.589 122.614 132.16C126.369 133.414 128.405 137.447 127.162 141.168C127.039 141.535 126.89 141.885 126.715 142.217L161.423 171.715C161.897 171.632 162.4 171.662 162.89 171.826C164.454 172.349 165.302 174.029 164.784 175.58C164.595 176.145 164.251 176.616 163.813 176.959L165.008 181.28C166.436 181.877 167.185 183.475 166.691 184.954C166.173 186.504 164.485 187.337 162.921 186.815C161.356 186.292 160.508 184.612 161.026 183.061C161.333 182.143 162.05 181.476 162.909 181.194L161.914 177.596C161.616 177.591 161.313 177.54 161.014 177.441C159.45 176.918 158.602 175.238 159.119 173.687C159.231 173.354 159.396 173.054 159.603 172.793L125.539 143.841C123.687 145.75 120.823 146.54 118.113 145.635C114.359 144.38 112.323 140.347 113.566 136.626C114.012 135.289 114.821 134.175 115.849 133.353L104.935 120.705C104.372 120.868 103.754 120.867 103.154 120.666C101.642 120.161 100.799 118.574 101.212 117.068L94.5946 113.447C93.8259 114.288 92.5997 114.644 91.4413 114.257C90.1208 113.816 89.3105 112.55 89.4014 111.233L84.8731 108.059C84.1053 108.706 83.0233 108.949 81.9947 108.605C80.4304 108.082 79.5821 106.402 80.1 104.852C80.2336 104.451 80.4452 104.099 80.7124 103.806L37.2719 50.8447C36.0476 51.4431 34.5917 51.5792 33.191 51.1112C30.3751 50.1706 28.8482 47.1457 29.7804 44.355C30.7127 41.5642 33.7511 40.0644 36.5669 41.005C39.3827 41.9457 40.9097 44.9705 39.9774 47.7613C39.7368 48.4818 39.3557 49.1162 38.8744 49.6448L82.5238 102.86C82.9624 102.802 83.4214 102.841 83.8703 102.99C85.292 103.465 86.1223 104.897 85.8731 106.318L90.2362 109.376C91.008 108.591 92.1942 108.268 93.3168 108.643C94.6105 109.075 95.4145 110.299 95.361 111.586L102.377 115.425C102.823 115.117 103.352 114.932 103.904 114.901L105.548 105.23C104.819 104.923 104.267 104.355 103.968 103.675L97.8366 102.438C97.8203 102.5 97.8019 102.562 97.7813 102.623C97.2634 104.174 95.5754 105.007 94.011 104.484C92.4467 103.962 91.5984 102.281 92.1163 100.731C92.5083 99.5572 93.5708 98.7945 94.7426 98.7198L96.7794 92.6224C95.5244 91.9481 94.8964 90.459 95.3592 89.0736C95.6349 88.2482 96.2423 87.626 96.9861 87.3035L93.2312 70.6671C92.4925 70.7417 91.7253 70.6645 90.974 70.4135C88.1582 69.4729 86.6312 66.448 87.5635 63.6573C88.0296 62.2619 89.0223 61.1892 90.2504 60.583L71.8097 24.0523C70.4275 24.3914 68.9329 24.3561 67.4793 23.8705C63.4119 22.5118 61.2063 18.1426 62.5529 14.1115C63.8995 10.0804 68.2883 7.91398 72.3556 9.27266C76.4229 10.6313 78.6285 15.0006 77.282 19.0317Z" fill="white"/>
</svg>
